<svg width="81" height="81" viewBox="0 0 81 81" fill="none" xmlns="http://www.w3.org/2000/svg">
<path d="M7.26665 61.9303C7.26665 63.1303 7.53331 64.3637 8.09998 65.5637C8.66665 66.7637 9.39997 67.897 10.3666 68.9637C12 70.7637 13.8 72.0637 15.8333 72.897C17.8333 73.7303 20 74.1637 22.3333 74.1637C25.7333 74.1637 29.3666 73.3637 33.2 71.7303C37.0333 70.097 40.8666 67.897 44.6666 65.1303C48.5 62.3303 52.1333 59.2303 55.6 55.797C59.0333 52.3303 62.1333 48.697 64.9 44.897C67.6333 41.097 69.8333 37.297 71.4333 33.5303C73.0333 29.7303 73.8333 26.097 73.8333 22.6303C73.8333 20.3637 73.4333 18.197 72.6333 16.197C71.8333 14.1637 70.5666 12.297 68.8 10.6303C66.6666 8.53034 64.3333 7.49701 61.8666 7.49701C60.9333 7.49701 60 7.69701 59.1666 8.09701C58.3 8.49701 57.5333 9.09701 56.9333 9.96368L49.2 20.8637C48.6 21.697 48.1666 22.4637 47.8666 23.197C47.5666 23.897 47.4 24.597 47.4 25.2303C47.4 26.0303 47.6333 26.8303 48.1 27.597C48.5333 28.3637 49.1666 29.1637 49.9666 29.9637L52.5 32.597C52.8666 32.9637 53.0333 33.397 53.0333 33.9303C53.0333 34.197 53 34.4303 52.9333 34.697C52.8333 34.9637 52.7333 35.1637 52.6666 35.3637C52.0666 36.4637 51.0333 37.897 49.5666 39.6303C48.0666 41.3637 46.4666 43.1303 44.7333 44.897C42.9333 46.6637 41.2 48.297 39.4333 49.797C37.7 51.2637 36.2666 52.2637 35.1333 52.8637C34.9666 52.9303 34.7666 53.0303 34.5333 53.1303C34.2666 53.2303 34 53.2637 33.7 53.2637C33.1333 53.2637 32.7 53.0637 32.3333 52.697L29.8 50.197C28.9666 49.3637 28.1666 48.7303 27.4 48.3303C26.6333 47.8637 25.8666 47.6303 25.0333 47.6303C24.4 47.6303 23.7333 47.7637 23 48.0637C22.2666 48.3637 21.5 48.797 20.6666 49.3637L9.63331 57.197C8.76664 57.797 8.16664 58.497 7.79998 59.3303C7.46664 60.1637 7.26665 60.997 7.26665 61.9303Z" stroke="#6D319B" stroke-width="3" stroke-miterlimit="10"/>
<path d="M18.8333 30.8304C18.8333 28.8304 20.4 25.7637 22.7333 23.2637C24.8667 20.9637 27.7 19.1637 30.5 19.1637" stroke="#6D319B" stroke-width="3" stroke-linecap="round" stroke-linejoin="round"/>
<path d="M7.16666 30.8303C7.16666 17.9303 17.6 7.49701 30.5 7.49701" stroke="#6D319B" stroke-width="3" stroke-linecap="round" stroke-linejoin="round"/>
</svg>
