<svg width="20" height="16" viewBox="0 0 20 16" fill="none" xmlns="http://www.w3.org/2000/svg">
<path fill-rule="evenodd" clip-rule="evenodd" d="M0.782444 15.3303H19.2176C19.3509 15.3302 19.482 15.2928 19.5984 15.2217L12.7202 8.19803L10.1678 10.8046C10.1222 10.8509 10.0623 10.8767 10.0001 10.8767C9.93789 10.8767 9.87798 10.8509 9.83244 10.8046L7.28 8.19852L0.401778 15.2217C0.518117 15.2928 0.64916 15.3302 0.782444 15.3303ZM0.0693334 14.8248C0.0235948 14.7149 -4.86822e-05 14.5956 7.52572e-08 14.4748V1.18604C2.27508e-05 1.06523 0.0236622 0.945829 0.0693334 0.835831L6.91933 7.83032L0.0693334 14.8248ZM19.2176 0.330323C19.351 0.330194 19.4822 0.367694 19.5984 0.439202L10 10.24L0.401778 0.439202C0.51798 0.367673 0.649101 0.33017 0.782444 0.330323H19.2176ZM20 1.18604V14.4748C20 14.5956 19.9765 14.7149 19.9309 14.8248L13.0809 7.83032L19.9309 0.835831C19.9764 0.945878 20 1.06526 20 1.18604Z" fill="#A064CE"/>
</svg>
