<svg width="16" height="15" viewBox="0 0 16 15" fill="none" xmlns="http://www.w3.org/2000/svg">
<g clip-path="url(#clip0_1_544)">
<path d="M7.90486 1.86398C9.80331 1.86398 10.0281 1.87231 10.7747 1.90561C11.4686 1.93614 11.8433 2.05272 12.0931 2.14986C12.4234 2.27753 12.6621 2.43296 12.9091 2.67998C13.1589 2.92978 13.3115 3.16569 13.4392 3.49598C13.5364 3.74578 13.6529 4.12324 13.6835 4.81435C13.7168 5.56373 13.7251 5.78855 13.7251 7.68422C13.7251 9.58267 13.7168 9.80748 13.6835 10.5541C13.6529 11.248 13.5364 11.6227 13.4392 11.8725C13.3115 12.2027 13.1561 12.4414 12.9091 12.6885C12.6593 12.9383 12.4234 13.0909 12.0931 13.2186C11.8433 13.3157 11.4658 13.4323 10.7747 13.4628C10.0253 13.4961 9.80053 13.5045 7.90486 13.5045C6.00641 13.5045 5.7816 13.4961 5.03499 13.4628C4.34111 13.4323 3.96641 13.3157 3.71662 13.2186C3.38633 13.0909 3.14764 12.9355 2.90062 12.6885C2.65082 12.4387 2.49817 12.2027 2.3705 11.8725C2.27335 11.6227 2.15678 11.2452 2.12625 10.5541C2.09295 9.80471 2.08462 9.57989 2.08462 7.68422C2.08462 5.78577 2.09295 5.56096 2.12625 4.81435C2.15678 4.12047 2.27335 3.74578 2.3705 3.49598C2.49817 3.16569 2.6536 2.927 2.90062 2.67998C3.15042 2.43018 3.38633 2.27753 3.71662 2.14986C3.96641 2.05272 4.34388 1.93614 5.03499 1.90561C5.7816 1.87231 6.00641 1.86398 7.90486 1.86398ZM7.90486 0.584473C5.97588 0.584473 5.73441 0.592799 4.9767 0.626105C4.22176 0.659411 3.70274 0.781534 3.25311 0.956391C2.78405 1.13957 2.38715 1.38104 1.99303 1.77794C1.59613 2.17206 1.35466 2.56896 1.17148 3.03525C0.996622 3.48765 0.874499 4.0039 0.841193 4.75884C0.807887 5.51932 0.799561 5.76079 0.799561 7.68977C0.799561 9.61875 0.807887 9.86022 0.841193 10.6179C0.874499 11.3729 0.996622 11.8919 1.17148 12.3415C1.35466 12.8106 1.59613 13.2075 1.99303 13.6016C2.38715 13.9957 2.78405 14.24 3.25033 14.4204C3.70274 14.5952 4.21899 14.7174 4.97392 14.7507C5.73164 14.784 5.97311 14.7923 7.90208 14.7923C9.83106 14.7923 10.0725 14.784 10.8302 14.7507C11.5852 14.7174 12.1042 14.5952 12.5538 14.4204C13.0201 14.24 13.417 13.9957 13.8111 13.6016C14.2053 13.2075 14.4495 12.8106 14.6299 12.3443C14.8048 11.8919 14.9269 11.3756 14.9602 10.6207C14.9935 9.86299 15.0018 9.62152 15.0018 7.69255C15.0018 5.76357 14.9935 5.5221 14.9602 4.76439C14.9269 4.00945 14.8048 3.49043 14.6299 3.0408C14.4551 2.56896 14.2136 2.17206 13.8167 1.77794C13.4226 1.38382 13.0257 1.13957 12.5594 0.959166C12.107 0.784309 11.5907 0.662187 10.8358 0.628881C10.0753 0.592799 9.83384 0.584473 7.90486 0.584473Z" fill="#0081C6"/>
<path d="M7.90492 4.04004C5.8899 4.04004 4.25513 5.67481 4.25513 7.68983C4.25513 9.70485 5.8899 11.3396 7.90492 11.3396C9.91994 11.3396 11.5547 9.70485 11.5547 7.68983C11.5547 5.67481 9.91994 4.04004 7.90492 4.04004ZM7.90492 10.0573C6.59766 10.0573 5.53741 8.99709 5.53741 7.68983C5.53741 6.38257 6.59766 5.32232 7.90492 5.32232C9.21218 5.32232 10.2724 6.38257 10.2724 7.68983C10.2724 8.99709 9.21218 10.0573 7.90492 10.0573Z" fill="#0081C6"/>
<path d="M12.5511 3.89578C12.5511 4.36762 12.1681 4.74787 11.699 4.74787C11.2272 4.74787 10.8469 4.36485 10.8469 3.89578C10.8469 3.42395 11.2299 3.0437 11.699 3.0437C12.1681 3.0437 12.5511 3.42672 12.5511 3.89578Z" fill="#0081C6"/>
</g>
<defs>
<clipPath id="clip0_1_544">
<rect width="14.2106" height="14.2106" fill="white" transform="translate(0.799561 0.584473)"/>
</clipPath>
</defs>
</svg>
