<svg width="22" height="22" viewBox="0 0 22 22" fill="none" xmlns="http://www.w3.org/2000/svg">
<path d="M9.87501 10.8303C9.87501 11.1287 9.99354 11.4148 10.2045 11.6258C10.4155 11.8368 10.7016 11.9553 11 11.9553C11.2984 11.9553 11.5845 11.8368 11.7955 11.6258C12.0065 11.4148 12.125 11.1287 12.125 10.8303C12.125 10.532 12.0065 10.2458 11.7955 10.0348C11.5845 9.82385 11.2984 9.70532 11 9.70532C10.7016 9.70532 10.4155 9.82385 10.2045 10.0348C9.99354 10.2458 9.87501 10.532 9.87501 10.8303ZM14.5625 10.8303C14.5625 11.1287 14.681 11.4148 14.892 11.6258C15.103 11.8368 15.3891 11.9553 15.6875 11.9553C15.9859 11.9553 16.272 11.8368 16.483 11.6258C16.694 11.4148 16.8125 11.1287 16.8125 10.8303C16.8125 10.532 16.694 10.2458 16.483 10.0348C16.272 9.82385 15.9859 9.70532 15.6875 9.70532C15.3891 9.70532 15.103 9.82385 14.892 10.0348C14.681 10.2458 14.5625 10.532 14.5625 10.8303ZM5.18751 10.8303C5.18751 11.1287 5.30604 11.4148 5.51702 11.6258C5.72799 11.8368 6.01414 11.9553 6.31251 11.9553C6.61088 11.9553 6.89703 11.8368 7.10801 11.6258C7.31898 11.4148 7.43751 11.1287 7.43751 10.8303C7.43751 10.532 7.31898 10.2458 7.10801 10.0348C6.89703 9.82385 6.61088 9.70532 6.31251 9.70532C6.01414 9.70532 5.72799 9.82385 5.51702 10.0348C5.30604 10.2458 5.18751 10.532 5.18751 10.8303ZM20.6844 6.76157C20.1547 5.50298 19.3953 4.37329 18.4274 3.40298C17.4661 2.43831 16.3251 1.67149 15.0688 1.14595C13.7797 0.604541 12.4109 0.330322 11 0.330322H10.9531C9.53282 0.337354 8.15704 0.618604 6.86329 1.17173C5.61774 1.70266 4.48737 2.47084 3.53517 3.43345C2.57657 4.40142 1.82423 5.52642 1.30392 6.78032C0.764855 8.07876 0.49298 9.45923 0.500011 10.8795C0.507964 12.5072 0.893039 14.1109 1.62501 15.5647V19.1272C1.62501 19.4131 1.7386 19.6874 1.94079 19.8895C2.14297 20.0917 2.4172 20.2053 2.70314 20.2053H6.26798C7.72179 20.9373 9.32547 21.3224 10.9531 21.3303H11.0024C12.4063 21.3303 13.768 21.0584 15.05 20.5264C16.3 20.0071 17.4368 19.2493 18.3969 18.2952C19.3649 17.3366 20.1266 16.2163 20.6586 14.967C21.2117 13.6733 21.493 12.2975 21.5 10.8772C21.507 9.44985 21.2305 8.0647 20.6844 6.76157ZM17.143 17.0272C15.5 18.6538 13.3203 19.5491 11 19.5491H10.9602C9.54689 19.542 8.14298 19.1905 6.90314 18.5295L6.70626 18.4241H3.40626V15.1241L3.30079 14.9272C2.63985 13.6874 2.28829 12.2834 2.28126 10.8702C2.27189 8.53345 3.16485 6.3397 4.80314 4.68735C6.43907 3.03501 8.62579 2.12095 10.9625 2.11157H11.0024C12.1742 2.11157 13.3109 2.33892 14.382 2.78892C15.4274 3.2272 16.3649 3.85767 17.1711 4.66392C17.975 5.46782 18.6078 6.40767 19.0461 7.45298C19.5008 8.53579 19.7281 9.68423 19.7234 10.8702C19.7094 13.2045 18.793 15.3913 17.143 17.0272Z" fill="#A064CE"/>
</svg>
