<svg width="19" height="20" viewBox="0 0 19 20" fill="none" xmlns="http://www.w3.org/2000/svg">
<path d="M7.62511 6.87321C8.44357 6.05474 8.52474 4.74927 7.8145 3.82934L5.86643 1.31308C5.46058 0.792242 4.85181 0.467563 4.18892 0.426978C3.5328 0.386393 2.88344 0.629902 2.41672 1.09663L2.07851 1.43484C-0.106307 3.61289 -0.43775 7.04907 1.28711 9.59915C3.56662 12.9812 6.44138 15.856 9.82345 18.1355C10.9192 18.8728 12.1706 19.2381 13.4152 19.2381C15.086 19.2381 16.7432 18.5887 17.9878 17.3441L18.326 17.0059C18.7927 16.5392 19.0362 15.8898 18.9956 15.2337C18.955 14.5708 18.6304 13.962 18.1095 13.5562L15.5933 11.6081C14.6733 10.8979 13.3679 10.979 12.5494 11.7975L11.528 12.8189C10.9666 13.3803 10.1075 13.4885 9.44466 13.0895C8.15271 12.3183 7.10427 11.2699 6.33316 9.97795C5.93407 9.31506 6.0423 8.45601 6.60372 7.89459L7.62511 6.87321Z" fill="#A064CE"/>
<path d="M11.1912 1.88798C14.5191 2.55898 17.0936 5.25991 17.5962 8.61018C17.6462 8.94569 17.935 9.18649 18.2638 9.18649C18.2976 9.18649 18.3314 9.18446 18.3652 9.17905C18.7346 9.12358 18.9889 8.77929 18.9334 8.40997C18.347 4.49894 15.343 1.3455 11.4584 0.562209C11.089 0.489156 10.7353 0.725225 10.6616 1.09184C10.5878 1.45846 10.8252 1.81425 11.1912 1.88798Z" fill="#A064CE"/>
<path d="M10.0128 4.33053C9.93841 4.69714 10.1752 5.05361 10.5411 5.12802C12.5061 5.5271 14.0287 7.12547 14.3297 9.10533C14.3804 9.44016 14.6686 9.68029 14.9973 9.68029C15.0311 9.68029 15.0656 9.67826 15.1001 9.67285C15.4695 9.6167 15.7231 9.27173 15.667 8.90241C15.2814 6.36383 13.3293 4.31429 10.8103 3.80225C10.443 3.72784 10.0865 3.96459 10.0128 4.33053Z" fill="#A064CE"/>
</svg>
