<svg width="17" height="21" viewBox="0 0 17 21" fill="none" xmlns="http://www.w3.org/2000/svg">
<path d="M0 18.1912C0.000301937 18.5441 0.0978146 18.89 0.281662 19.1903C0.465509 19.4906 0.728462 19.7335 1.04119 19.8918C1.35392 20.0502 1.70413 20.1179 2.05276 20.0872C2.40139 20.0566 2.73474 19.9289 3.01561 19.7184C3.4166 19.3872 3.92316 19.2139 4.44125 19.2308C4.75462 19.2278 5.06544 19.2877 5.35561 19.4071C5.64577 19.5264 5.90947 19.7029 6.13133 19.9261C6.75028 20.5072 7.56457 20.8303 8.41028 20.8303C9.25598 20.8303 10.0703 20.5072 10.6892 19.9261C10.9106 19.7028 11.1739 19.5264 11.4636 19.407C11.7534 19.2876 12.0639 19.2277 12.3769 19.2308C12.9745 19.2271 13.5542 19.4364 14.0137 19.8218C14.2941 20.0251 14.625 20.1461 14.9695 20.1713C15.314 20.1966 15.6587 20.125 15.9654 19.9646C16.2772 19.8045 16.5389 19.5603 16.7215 19.2593C16.9041 18.9583 17.0005 18.6122 17 18.2593V2.73513C17 2.22995 16.801 1.74545 16.4468 1.38823C16.0925 1.03101 15.6121 0.830322 15.1111 0.830322H1.88889C1.38792 0.830322 0.907478 1.03101 0.553243 1.38823C0.199007 1.74545 0 2.22995 0 2.73513V18.1912ZM7.55555 4.16374H12.75C12.8752 4.16374 12.9954 4.21391 13.0839 4.30322C13.1725 4.39252 13.2222 4.51365 13.2222 4.63995C13.2222 4.76624 13.1725 4.88737 13.0839 4.97667C12.9954 5.06598 12.8752 5.11615 12.75 5.11615H7.55555C7.43031 5.11615 7.3102 5.06598 7.22164 4.97667C7.13308 4.88737 7.08333 4.76624 7.08333 4.63995C7.08333 4.51365 7.13308 4.39252 7.22164 4.30322C7.3102 4.21391 7.43031 4.16374 7.55555 4.16374ZM7.55555 6.06855H13.6944C13.8197 6.06855 13.9398 6.11872 14.0284 6.20803C14.1169 6.29734 14.1667 6.41846 14.1667 6.54476C14.1667 6.67105 14.1169 6.79218 14.0284 6.88148C13.9398 6.97079 13.8197 7.02096 13.6944 7.02096H7.55555C7.43031 7.02096 7.3102 6.97079 7.22164 6.88148C7.13308 6.79218 7.08333 6.67105 7.08333 6.54476C7.08333 6.41846 7.13308 6.29734 7.22164 6.20803C7.3102 6.11872 7.43031 6.06855 7.55555 6.06855ZM7.55555 8.92577H12.75C12.8752 8.92577 12.9954 8.97594 13.0839 9.06525C13.1725 9.15455 13.2222 9.27568 13.2222 9.40197C13.2222 9.52827 13.1725 9.64939 13.0839 9.7387C12.9954 9.82801 12.8752 9.87818 12.75 9.87818H7.55555C7.43031 9.87818 7.3102 9.82801 7.22164 9.7387C7.13308 9.64939 7.08333 9.52827 7.08333 9.40197C7.08333 9.27568 7.13308 9.15455 7.22164 9.06525C7.3102 8.97594 7.43031 8.92577 7.55555 8.92577ZM7.55555 10.8306H13.6944C13.8197 10.8306 13.9398 10.8808 14.0284 10.9701C14.1169 11.0594 14.1667 11.1805 14.1667 11.3068C14.1667 11.4331 14.1169 11.5542 14.0284 11.6435C13.9398 11.7328 13.8197 11.783 13.6944 11.783H7.55555C7.43031 11.783 7.3102 11.7328 7.22164 11.6435C7.13308 11.5542 7.08333 11.4331 7.08333 11.3068C7.08333 11.1805 7.13308 11.0594 7.22164 10.9701C7.3102 10.8808 7.43031 10.8306 7.55555 10.8306ZM7.55555 13.6878H12.75C12.8752 13.6878 12.9954 13.738 13.0839 13.8273C13.1725 13.9166 13.2222 14.0377 13.2222 14.164C13.2222 14.2903 13.1725 14.4114 13.0839 14.5007C12.9954 14.59 12.8752 14.6402 12.75 14.6402H7.55555C7.43031 14.6402 7.3102 14.59 7.22164 14.5007C7.13308 14.4114 7.08333 14.2903 7.08333 14.164C7.08333 14.0377 7.13308 13.9166 7.22164 13.8273C7.3102 13.738 7.43031 13.6878 7.55555 13.6878ZM7.55555 15.5926H13.6944C13.8197 15.5926 13.9398 15.6428 14.0284 15.7321C14.1169 15.8214 14.1667 15.9425 14.1667 16.0688C14.1667 16.1951 14.1169 16.3162 14.0284 16.4055C13.9398 16.4948 13.8197 16.545 13.6944 16.545H7.55555C7.43031 16.545 7.3102 16.4948 7.22164 16.4055C7.13308 16.3162 7.08333 16.1951 7.08333 16.0688C7.08333 15.9425 7.13308 15.8214 7.22164 15.7321C7.3102 15.6428 7.43031 15.5926 7.55555 15.5926ZM2.97169 5.25568C3.06025 5.1664 3.18034 5.11625 3.30556 5.11625C3.43077 5.11625 3.55086 5.1664 3.63942 5.25568L4.199 5.81998L5.28889 4.35422C5.36403 4.25319 5.4759 4.18639 5.59988 4.16853C5.66127 4.15968 5.72379 4.16312 5.78386 4.17864C5.84394 4.19416 5.90039 4.22146 5.95 4.25898C5.99961 4.2965 6.04141 4.34351 6.073 4.39732C6.1046 4.45113 6.12537 4.51069 6.13414 4.5726C6.14291 4.63451 6.1395 4.69755 6.12411 4.75813C6.10872 4.81871 6.08165 4.87564 6.04444 4.92567L4.62778 6.83048C4.58731 6.88527 4.53562 6.93065 4.47622 6.96351C4.41682 6.99638 4.3511 7.01597 4.28353 7.02096H4.25C4.12477 7.02093 4.00468 6.97074 3.91614 6.88143L2.97169 5.92903C2.88317 5.83973 2.83343 5.71862 2.83343 5.59235C2.83343 5.46608 2.88317 5.34498 2.97169 5.25568ZM2.97169 10.0177C3.06025 9.92843 3.18034 9.87828 3.30556 9.87828C3.43077 9.87828 3.55086 9.92843 3.63942 10.0177L4.199 10.582L5.28889 9.11625C5.3261 9.06622 5.37271 9.02408 5.42607 8.99221C5.47943 8.96035 5.53849 8.9394 5.59988 8.93056C5.66127 8.92171 5.72379 8.92515 5.78386 8.94067C5.84394 8.95619 5.90039 8.98349 5.95 9.02101C5.99961 9.05853 6.04141 9.10554 6.073 9.15935C6.1046 9.21316 6.12537 9.27272 6.13414 9.33463C6.14291 9.39653 6.1395 9.45958 6.12411 9.52016C6.10872 9.58074 6.08165 9.63767 6.04444 9.6877L4.62778 11.5925C4.58731 11.6473 4.53562 11.6927 4.47622 11.7255C4.41682 11.7584 4.3511 11.778 4.28353 11.783H4.25C4.12477 11.783 4.00468 11.7328 3.91614 11.6435L2.97169 10.6911C2.88317 10.6018 2.83343 10.4807 2.83343 10.3544C2.83343 10.2281 2.88317 10.107 2.97169 10.0177ZM2.97169 14.7797C3.06025 14.6905 3.18034 14.6403 3.30556 14.6403C3.43077 14.6403 3.55086 14.6905 3.63942 14.7797L4.199 15.344L5.28889 13.8783C5.36403 13.7772 5.4759 13.7104 5.59988 13.6926C5.72387 13.6747 5.84981 13.7073 5.95 13.783C6.05019 13.8588 6.11643 13.9716 6.13414 14.0967C6.15185 14.2217 6.11959 14.3487 6.04444 14.4497L4.62778 16.3545C4.58731 16.4093 4.53562 16.4547 4.47622 16.4876C4.41682 16.5204 4.3511 16.54 4.28353 16.545H4.25C4.12477 16.545 4.00468 16.4948 3.91614 16.4055L2.97169 15.4531C2.88317 15.3638 2.83343 15.2427 2.83343 15.1164C2.83343 14.9901 2.88317 14.869 2.97169 14.7797Z" fill="#A064CE"/>
</svg>
