<svg width="81" height="81" viewBox="0 0 81 81" fill="none" xmlns="http://www.w3.org/2000/svg">
<path d="M57.1666 71.6637H23.8333C22.4666 71.6637 21.3333 70.5303 21.3333 69.1637C21.3333 67.797 22.4666 66.6637 23.8333 66.6637H57.1666C66.7 66.6637 71.3333 62.0303 71.3333 52.497V29.1637C71.3333 19.6303 66.7 14.997 57.1666 14.997H23.8333C14.3 14.997 9.66663 19.6303 9.66663 29.1637C9.66663 30.5303 8.53329 31.6637 7.16663 31.6637C5.79996 31.6637 4.66663 30.5303 4.66663 29.1637C4.66663 16.997 11.6666 9.99701 23.8333 9.99701H57.1666C69.3333 9.99701 76.3333 16.997 76.3333 29.1637V52.497C76.3333 64.6637 69.3333 71.6637 57.1666 71.6637Z" fill="#6D319B"/>
<path d="M40.4992 43.7302C37.6992 43.7302 34.8659 42.8636 32.6992 41.0969L22.2658 32.7636C21.1992 31.8969 20.9992 30.3302 21.8659 29.2636C22.7325 28.1969 24.2991 27.9969 25.3658 28.8636L35.7992 37.1969C38.3325 39.2302 42.6325 39.2302 45.1658 37.1969L55.5992 28.8636C56.6658 27.9969 58.2658 28.1636 59.0991 29.2636C59.9658 30.3302 59.7991 31.9302 58.6991 32.7636L48.2658 41.0969C46.1325 42.8636 43.2992 43.7302 40.4992 43.7302Z" fill="#6D319B"/>
<path d="M27.1666 58.3303H7.16663C5.79996 58.3303 4.66663 57.197 4.66663 55.8303C4.66663 54.4637 5.79996 53.3303 7.16663 53.3303H27.1666C28.5333 53.3303 29.6666 54.4637 29.6666 55.8303C29.6666 57.197 28.5333 58.3303 27.1666 58.3303Z" fill="#6D319B"/>
<path d="M17.1666 44.997H7.16663C5.79996 44.997 4.66663 43.8637 4.66663 42.497C4.66663 41.1303 5.79996 39.997 7.16663 39.997H17.1666C18.5333 39.997 19.6666 41.1303 19.6666 42.497C19.6666 43.8637 18.5333 44.997 17.1666 44.997Z" fill="#6D319B"/>
</svg>
