<svg width="46" height="119" viewBox="0 0 46 119" fill="none" xmlns="http://www.w3.org/2000/svg">
<path d="M29.2375 45.2944C29.3717 45.2563 29.4284 45.1766 29.4695 45.095C29.5189 44.9907 29.6069 44.915 29.7102 44.8572C29.7818 44.811 29.8378 44.7629 29.9018 44.7079C29.9377 44.507 30.0508 44.3635 30.1562 44.2111C30.302 44.0085 30.4478 43.8059 30.5856 43.6102C30.5936 43.6034 30.594 43.5876 30.602 43.5807C30.8736 43.3627 30.9757 43.0123 31.1626 42.7281C31.252 42.5894 31.3182 42.4398 31.4385 42.3209C31.4865 42.2796 31.5036 42.2186 31.5363 42.1596C31.6348 41.9668 31.7024 41.7542 31.8009 41.5613C31.8831 41.398 31.9111 41.204 31.9547 41.012C31.9718 40.951 31.9812 40.8811 32.0059 40.8289C32.1543 40.5161 32.2248 40.1774 32.3033 39.8318C32.4159 39.3642 32.4897 38.8837 32.5555 38.41C32.6285 37.961 32.6466 37.5129 32.6571 37.0558C32.6698 36.5043 32.6748 35.9438 32.6562 35.3882C32.6471 35.1025 32.63 34.8237 32.574 34.532C32.5391 34.3458 32.5277 34.1546 32.5005 33.9773C32.4535 33.6314 32.4142 33.2944 32.3513 32.9623C32.2883 32.6302 32.2021 32.2872 32.1236 31.9531C32.0664 31.7087 32.0017 31.4554 31.9446 31.211C31.9297 31.1774 31.9304 31.1459 31.9155 31.1124C31.666 30.3691 31.4088 29.6169 31.1749 28.8756C30.9261 28.1008 30.6221 27.3426 30.294 26.605C30.0253 26.0173 29.7249 25.4413 29.4561 24.8536C29.0226 23.9286 28.4782 23.0526 27.9494 22.1786C27.6395 21.6725 27.3057 21.1871 26.9722 20.6859C26.7602 20.3583 26.5242 20.0515 26.2961 19.7377C26.2278 19.642 26.1758 19.5167 26.1074 19.421C26.0314 19.3164 25.9391 19.2413 25.855 19.1436C25.6416 18.8791 25.4205 18.6058 25.223 18.3275C25.003 18.0069 24.727 17.7343 24.4909 17.4274C24.064 16.8984 23.5967 16.4196 23.1378 15.9181C23.0996 15.8737 23.0535 15.8361 23.0233 15.7848C22.6891 15.3152 22.2669 14.9211 21.8843 14.5085C21.8079 14.4196 21.7152 14.3603 21.6308 14.2784C21.5541 14.2053 21.485 14.1411 21.4083 14.068C21.1632 13.8152 20.9261 13.5556 20.6733 13.294C20.5202 13.1321 20.3675 12.9544 20.1744 12.8269C20.1126 12.7873 20.0595 12.7094 20.0057 12.663C19.8751 12.5435 19.729 12.422 19.5984 12.3025C19.5446 12.256 19.4908 12.2096 19.4526 12.1652C19.0308 11.7554 18.5842 11.3978 18.146 11.0175C17.8078 10.7212 17.4533 10.4544 17.1227 10.1669C16.8307 9.90816 16.5384 9.66515 16.214 9.44964C15.9358 9.27167 15.674 9.06417 15.4035 8.89509C15.0478 8.67557 14.7085 8.42654 14.3693 8.17751C13.9449 7.87804 13.5125 7.58543 13.0475 7.35186C12.846 7.24696 12.6609 7.11255 12.4595 7.00766C12.1962 6.86322 11.9249 6.72566 11.654 6.57233C11.29 6.37544 10.9264 6.16279 10.5624 5.96591C10.1984 5.76902 9.83443 5.57214 9.46243 5.38212C9.18353 5.23568 8.88824 5.11874 8.61698 4.98117C8.34571 4.8436 8.07409 4.7218 7.78646 4.61375C7.39775 4.46901 7.03376 4.27212 6.67013 4.05947C6.52322 3.96948 6.37559 3.91101 6.20396 3.87317C5.69707 3.75277 5.21526 3.56447 4.73418 3.34465C4.46255 3.22284 4.18985 3.14832 3.90913 3.08068C3.59715 3.009 3.29315 2.93046 2.99861 2.782C2.88225 2.72754 2.74989 2.68686 2.61717 2.66191C2.39063 2.62493 2.1732 2.53377 1.96411 2.41999C1.80157 2.328 1.63102 2.2429 1.45285 2.14889C1.33139 1.97524 1.20955 1.81733 1.16735 1.60643C1.15426 1.49411 1.08589 1.39841 1.00153 1.31646C0.924798 1.24338 0.856047 1.16343 0.794958 1.09236C0.78877 1.02043 0.790224 0.95737 0.784042 0.885447C0.807673 0.880575 0.823658 0.866834 0.846933 0.877722C1.2131 0.980054 1.57128 1.08928 1.92981 1.18273C2.14798 1.24235 2.3585 1.29308 2.55195 1.40485C2.63705 1.45529 2.7385 1.47622 2.83231 1.48827C2.97303 1.50633 3.10504 1.56278 3.23703 1.61924C3.49303 1.73904 3.74973 1.82734 4.02317 1.87035C4.30461 1.90649 4.58532 1.97413 4.85839 2.03289C4.9053 2.03891 4.95221 2.04493 4.98312 2.0647C5.28493 2.2378 5.62021 2.32036 5.9213 2.52497C6.09875 2.6505 6.29292 2.73076 6.50345 2.7815C6.68271 2.82822 6.86125 2.90646 7.04051 2.95318C7.1885 2.99589 7.33579 3.07012 7.48415 3.09707C7.71832 3.14294 7.93576 3.23408 8.13685 3.35473C8.36121 3.48628 8.57758 3.62468 8.80194 3.75623C8.98739 3.87487 9.1732 3.97776 9.37573 4.03537C9.67972 4.11392 9.94228 4.28988 10.2372 4.42258C10.5397 4.56416 10.8008 4.80315 11.0954 4.9516C11.3044 5.06538 11.5135 5.17917 11.7226 5.29294C11.7535 5.31272 11.7844 5.33249 11.8157 5.3365C12.1357 5.40129 12.3979 5.59301 12.6757 5.78674C12.8222 5.89248 12.9931 5.96185 13.1561 6.03808C13.3888 6.14699 13.6051 6.28542 13.8128 6.46223C13.859 6.49977 13.9051 6.53731 13.9437 6.56597C14.2219 6.74394 14.5 6.9219 14.7702 7.10674C14.9248 7.20562 15.0633 7.31824 15.2019 7.43087C15.4637 7.63835 15.7411 7.84784 16.0106 8.0642C16.0415 8.08397 16.0724 8.10375 16.0957 8.11464C16.5291 8.35996 16.9139 8.67805 17.3066 8.98927C17.5684 9.19675 17.8306 9.38848 18.0764 9.60972C18.4684 9.95246 18.8684 10.2883 19.2277 10.6901C19.4648 10.9497 19.7019 11.2093 20.019 11.4002C20.0965 11.4417 20.1576 11.5128 20.2187 11.5839C20.6398 12.0252 21.0452 12.4645 21.4663 12.9058C21.5583 12.9967 21.6507 13.0717 21.7507 13.1557C21.8198 13.2199 21.8893 13.2683 21.9504 13.3394C22.6162 14.0492 23.29 14.7522 23.9479 15.4689C24.2384 15.7907 24.497 16.14 24.7716 16.4756C24.7945 16.5022 24.8174 16.5289 24.8403 16.5555C25.0538 16.82 25.2672 17.0845 25.4803 17.3648C25.6705 17.6184 25.8607 17.872 26.0586 18.1345C26.2033 18.319 26.3477 18.5193 26.4844 18.7107C26.667 18.9554 26.8495 19.2002 27.0317 19.4607C27.2445 19.7567 27.4572 20.0527 27.654 20.3624C27.9718 20.8616 28.2896 21.3608 28.6075 21.86C28.8115 22.1944 29.0548 22.526 29.1952 22.8996C29.2101 22.9332 29.225 22.9667 29.2403 22.9844C29.5043 23.4372 29.7683 23.8899 30.0324 24.3427C30.0549 24.3851 30.0855 24.4207 30.1004 24.4542C30.2266 24.7628 30.4244 25.0253 30.535 25.3319C30.5794 25.4482 30.6554 25.5528 30.7077 25.6623C30.9329 26.1022 31.1503 26.5331 31.3202 26.9896C31.3278 26.9985 31.3275 27.0142 31.3351 27.0231C31.4849 27.3269 31.6268 27.6375 31.737 27.9599C31.8108 28.159 31.9163 28.3464 31.9978 28.5545C32.1836 28.9972 32.3382 29.4359 32.4924 29.8904C32.7277 30.5686 32.9314 31.2586 33.1431 31.9418C33.1504 31.9664 33.15 31.9822 33.1573 32.0068C33.3082 32.2633 33.3097 32.5401 33.3661 32.816C33.3945 32.9461 33.4228 33.0762 33.4592 33.1994C33.612 33.7169 33.7335 34.2304 33.7917 34.7674C33.8765 35.5133 33.9613 36.2591 34.0461 37.005C34.053 37.0454 34.0676 37.0947 34.0589 37.1331C34.0015 37.5841 34.0848 38.0532 34.0117 38.5022C33.9848 38.6489 33.9969 38.8085 34.0012 38.9592C34.0042 39.173 33.9835 39.3916 33.9551 39.6013C33.9079 39.9509 33.8919 40.3045 33.8054 40.6569C33.7534 40.8715 33.748 41.1079 33.6961 41.3225C33.6168 41.6996 33.522 42.0747 33.4118 42.432C33.3435 42.6761 33.2286 42.8984 33.1446 43.1406C33.0861 43.299 33.0432 43.4595 32.9847 43.6179C32.9593 43.7016 32.9262 43.7764 32.8931 43.8511C32.671 44.3047 32.4569 44.7514 32.1882 45.1832C32.1395 45.256 32.0904 45.3445 32.057 45.4351C31.9904 45.6004 31.9006 45.7548 31.7723 45.8806C31.7643 45.8875 31.7563 45.8944 31.7483 45.9012C31.5847 46.1964 31.3673 46.445 31.1808 46.7135C31.1404 46.7636 31.1157 46.8158 31.0986 46.8768C31.0819 46.9221 31.0885 46.9783 31.0874 47.0255C31.2172 47.1766 31.3237 47.3167 31.4539 47.4519C31.5536 47.5517 31.6536 47.6356 31.7532 47.7354C31.899 47.8726 32.0525 48.0188 32.1903 48.1629C32.4202 48.3979 32.6416 48.6555 32.8794 48.8836C33.0329 49.0298 33.1144 49.2378 33.3075 49.3654C33.4849 49.4909 33.622 49.6666 33.7675 49.8196C33.9206 49.9815 34.066 50.1345 34.2111 50.3033C34.3333 50.4454 34.4399 50.5856 34.554 50.7346C34.6151 50.8056 34.6762 50.8767 34.7297 50.9389C34.9668 51.1985 35.2115 51.467 35.4566 51.7198C35.6174 51.8906 35.7778 52.0771 35.9145 52.2685C36.1498 52.607 36.4091 52.9248 36.6523 53.2563C36.8273 53.4922 36.9942 53.7349 37.1688 53.9865C37.2262 54.2151 37.4102 54.3968 37.4993 54.6137C37.5219 54.6561 37.5364 54.7054 37.5593 54.7321C37.7499 54.9699 37.9481 55.2167 38.1386 55.4545C38.1845 55.5078 38.2303 55.5611 38.2681 55.6213C38.442 55.9044 38.6001 56.1855 38.766 56.4755C38.834 56.587 38.8944 56.6896 38.9624 56.801C39.0377 56.9371 39.1366 57.0684 39.2039 57.2114C39.3235 57.4638 39.4751 57.6888 39.6188 57.9206C39.7472 58.1347 39.8992 58.3439 39.9327 58.5931C39.9469 58.6582 39.9847 58.7184 40.0145 58.7854C40.1498 59.0399 40.2774 59.2855 40.4127 59.5399C40.4429 59.5912 40.4731 59.6425 40.4877 59.6918C40.5451 59.9205 40.6822 60.0961 40.8033 60.2855C40.9244 60.4749 41.0375 60.6712 41.1266 60.8881C41.2154 61.1208 41.3121 61.3466 41.4405 61.5607C41.5838 61.8083 41.6874 62.0745 41.7991 62.3338C41.9406 62.6602 42.0508 62.9826 42.2003 63.3021C42.5956 64.1826 42.8884 65.0896 43.2205 65.9936C43.3238 66.2756 43.4427 66.5596 43.5144 66.8533C43.6213 67.3175 43.8075 67.7444 43.9225 68.2018C44.0651 68.8207 44.192 69.4376 44.3423 70.0655C44.4569 70.5385 44.5089 71.0036 44.6078 71.4747C44.622 71.5397 44.6362 71.6048 44.6348 71.6678C44.6199 71.9741 44.6992 72.2767 44.7549 72.5842C44.7891 72.802 44.8233 73.0197 44.8495 73.2444C44.8629 73.3409 44.8764 73.4375 44.8975 73.5429C44.9252 73.7046 44.9684 73.8682 44.9412 74.0306C44.9324 74.069 44.9314 74.1163 44.9459 74.1656C45.0318 74.5244 45.0234 74.8868 45.0464 75.2533C45.0577 75.4444 45.0453 75.6404 45.0955 75.8444C45.117 75.9341 45.1068 76.0356 45.1123 76.139C45.1203 76.472 45.1204 76.8118 45.0891 77.1476C45.0793 77.2333 45.0852 77.321 45.091 77.4087C45.0997 77.7101 45.0849 78.0164 45.0856 78.3247C45.0838 78.7434 45.0504 79.1737 45.0018 79.5864C44.9712 79.8907 44.9484 80.2038 44.9255 80.517C44.903 80.8145 44.8652 81.0941 44.827 81.3895C44.8176 81.4595 44.8002 81.5362 44.7827 81.613C44.7729 81.6987 44.7475 81.7824 44.7533 81.87C44.745 82.2325 44.729 82.5861 44.6116 82.9188C44.6029 82.9572 44.6018 83.0045 44.593 83.0428C44.5534 83.4013 44.5215 83.7686 44.4739 84.134C44.4281 84.4205 44.3823 84.707 44.3209 84.9916C44.2068 85.5222 44.1083 86.0549 43.9786 86.5835C43.8488 87.1122 43.6801 87.6279 43.5351 88.1388C43.4846 88.2904 43.4497 88.444 43.4068 88.6044C43.3563 88.756 43.3057 88.9076 43.2552 89.0592C43.213 89.1881 43.1553 89.315 43.1287 89.446C43.0255 89.8437 42.8604 90.2019 42.7187 90.5709C42.6602 90.7294 42.594 90.8789 42.5355 91.0374C42.469 91.2027 42.4024 91.368 42.3203 91.5313C42.1483 91.8491 42.0073 92.1866 41.8582 92.531C41.6677 92.9728 41.4231 93.384 41.1628 93.7932C41.0977 93.8955 41.0246 94.0046 40.9595 94.1069C40.7316 94.4728 40.5269 94.8496 40.2684 95.1799C40.0503 95.4601 39.8936 95.7957 39.6213 96.0452C39.461 96.1985 39.3155 96.3853 39.2014 96.5761C39.1039 96.7217 38.968 96.8386 38.8629 96.9752C38.5393 97.4079 38.1238 97.7497 37.754 98.1448C37.1912 98.7522 36.6211 99.335 36.0201 99.8979C35.9158 100.003 35.8347 100.119 35.7304 100.224C35.5377 100.421 35.3293 100.615 35.1214 100.794C35.0094 100.89 34.8978 100.971 34.8087 101.094C34.744 101.18 34.656 101.256 34.568 101.332C34.464 101.421 34.3604 101.495 34.2564 101.584C33.7831 102.053 33.2864 102.511 32.7902 102.953C32.5818 103.147 32.3426 103.322 32.1266 103.508C31.7347 103.845 31.3126 104.13 30.8901 104.432C30.4516 104.747 29.9898 105.051 29.5437 105.357C29.0816 105.677 28.6049 105.948 28.1203 106.226C27.7549 106.432 27.3815 106.645 27.0084 106.842C26.9448 106.881 26.8812 106.92 26.8179 106.944C26.3918 107.063 26.0409 107.318 25.6522 107.513C25.4777 107.601 25.2879 107.672 25.1137 107.744C25.0505 107.768 24.9876 107.776 24.9399 107.801C24.7247 107.955 24.472 108.033 24.2346 108.129C23.9735 108.23 23.7274 108.365 23.4667 108.45C23.1111 108.57 22.7478 108.681 22.3922 108.802C22.2341 108.86 22.0835 108.928 21.9334 108.98C21.412 109.15 20.8749 109.318 20.3459 109.479C20.2037 109.524 20.0619 109.554 19.9201 109.583C19.4394 109.687 18.9588 109.791 18.4701 109.902C18.0839 109.987 17.7061 110.049 17.3127 110.11C16.9273 110.163 16.5488 110.256 16.163 110.325C15.8089 110.383 15.4551 110.424 15.0933 110.473C14.8417 110.504 14.5897 110.55 14.3381 110.581C13.9374 110.617 13.5287 110.659 13.128 110.694C12.916 110.707 12.7117 110.728 12.515 110.758C12.4419 110.867 12.4706 110.982 12.4837 111.094C12.5241 111.384 12.5649 111.657 12.5191 111.944C12.5093 112.03 12.5307 112.119 12.5522 112.209C12.6668 112.682 12.6952 113.152 12.6923 113.618C12.6942 113.879 12.7116 114.142 12.7604 114.409C12.8088 114.692 12.8023 114.976 12.8114 115.261C12.8158 115.412 12.8122 115.57 12.8165 115.72C12.8231 115.777 12.8296 115.833 12.8442 115.882C12.9027 116.063 12.8911 116.228 12.8635 116.406C12.8352 116.616 12.8301 116.836 12.833 117.05C12.8233 117.476 12.7746 117.888 12.7179 118.308C12.6983 118.479 12.6092 118.602 12.4816 118.696C12.394 118.756 12.3074 118.769 12.1831 118.721C11.9838 118.522 11.7449 118.341 11.5547 118.087C11.3569 117.825 11.1023 117.642 10.8238 117.48C10.7154 117.418 10.615 117.35 10.523 117.259C10.4463 117.186 10.3692 117.129 10.2841 117.079C10.0209 116.934 9.79031 116.731 9.53612 116.532C9.38592 116.244 9.12446 116.021 8.89464 115.786C8.68772 115.578 8.4648 115.383 8.24189 115.188C8.05752 115.022 7.85717 114.87 7.6728 114.704C7.37316 114.437 7.0248 114.242 6.70879 114.004C6.44661 113.812 6.17644 113.627 5.93898 113.383C5.77825 113.212 5.58587 113.053 5.40914 112.896C5.3095 112.797 5.22549 112.699 5.14985 112.579C5.07421 112.458 4.95893 112.356 4.85965 112.241C4.76765 112.15 4.6753 112.075 4.5753 111.991C4.3062 111.759 4.03709 111.527 3.77563 111.304C3.60654 111.155 3.42146 111.021 3.23637 110.887C3.028 110.741 2.80291 110.641 2.56874 110.595C2.53746 110.591 2.50656 110.572 2.46766 110.559C2.44511 110.516 2.4222 110.49 2.40765 110.44C2.38546 110.382 2.37927 110.31 2.36509 110.245C2.26469 109.837 2.21955 109.413 2.07988 109.007C2.02823 108.866 2.00058 108.705 2.01984 108.549C2.03001 108.448 1.98564 108.331 1.95727 108.201C2.02379 108.036 2.10631 107.857 2.18919 107.662C2.42481 107.645 2.69026 107.695 2.87314 107.584C2.94658 107.459 3.00366 107.364 3.07637 107.27C3.28723 106.965 3.57517 106.718 3.83222 106.451C3.92057 106.359 4.00856 106.283 4.12746 106.228C4.19072 106.204 4.23908 106.147 4.29507 106.099C4.46341 105.939 4.63973 105.772 4.80806 105.612C4.88005 105.55 4.95968 105.497 5.00076 105.415C5.10655 105.247 5.26543 105.157 5.41668 105.058C5.44868 105.03 5.49595 105.02 5.52794 104.993C5.70428 104.826 5.92607 104.728 6.12459 104.619C6.39437 104.48 6.6489 104.323 6.91832 104.199C7.21174 104.055 7.52042 103.929 7.82912 103.802C8.01128 103.723 8.19307 103.659 8.38287 103.589C8.55703 103.517 8.73845 103.469 8.9348 103.454C9.07842 103.346 9.22897 103.279 9.41732 103.271C9.61367 103.257 9.81108 103.195 9.97797 103.098C10.2321 102.957 10.5237 102.892 10.8219 102.883C10.9317 102.881 11.0415 102.879 11.1433 102.884C11.2669 102.963 11.311 103.096 11.363 103.221C11.4597 103.447 11.5641 103.681 11.6452 103.905C11.8005 104.312 11.9162 104.738 11.9221 105.166C11.9279 105.593 12.0043 106.022 12.0575 106.44C12.0844 106.633 12.1346 106.837 12.099 107.022C12.0982 107.053 12.0975 107.085 12.1044 107.125C12.1546 107.329 12.1503 107.518 12.1536 107.716C12.1583 107.851 12.1791 107.973 12.2551 108.077C12.3249 108.11 12.3798 108.109 12.4198 108.075C12.5078 107.999 12.6256 107.99 12.7434 107.982C12.8844 107.984 13.0179 107.978 13.1906 107.968C13.2684 107.994 13.3775 108.024 13.5019 108.071C13.675 108.046 13.864 108.007 14.0527 107.984C14.2178 107.966 14.3909 107.94 14.5556 107.938C14.9243 107.93 15.2712 107.848 15.6253 107.791C15.822 107.761 16.0119 107.69 16.2158 107.685C16.4904 107.68 16.735 107.609 17.0023 107.58C17.191 107.557 17.3797 107.534 17.5539 107.461C17.5619 107.454 17.5775 107.456 17.5855 107.45C17.9073 107.436 18.2077 107.332 18.5145 107.284C18.6483 107.262 18.7821 107.24 18.9239 107.21C19.0974 107.17 19.2636 107.104 19.3614 106.943C19.4948 106.936 19.6209 106.905 19.7464 106.905C19.8875 106.907 20.0217 106.869 20.1256 106.78C20.2056 106.711 20.3085 106.669 20.4107 106.658C20.7016 106.625 20.9626 106.524 21.2233 106.439C21.2786 106.422 21.3182 106.404 21.3731 106.403C21.6004 106.408 21.7826 106.329 21.9651 106.234C22.084 106.178 22.2105 106.131 22.3519 106.117C22.5559 106.112 22.7385 106.017 22.8981 105.895C23.0737 105.76 23.2791 105.691 23.4769 105.614C23.5638 105.585 23.6431 105.548 23.7303 105.504C23.9449 105.381 24.1739 105.308 24.4335 105.27C24.6931 105.232 24.9459 105.154 25.1458 104.982C25.2978 104.852 25.473 104.732 25.6479 104.628C25.8068 104.538 25.9726 104.488 26.1759 104.514C26.3987 104.369 26.6376 104.21 26.8681 104.073C26.9794 104.009 27.1139 103.955 27.2328 103.899C27.4622 103.81 27.6608 103.701 27.8447 103.543C28.0447 103.371 28.2527 103.192 28.5359 103.149C28.6225 103.137 28.7177 103.086 28.7741 103.022C28.9671 102.81 29.2209 102.684 29.4514 102.548C29.5787 102.469 29.7216 102.393 29.8565 102.323C29.9041 102.298 29.9517 102.272 29.9837 102.245C30.1913 102.082 30.3993 101.903 30.6069 101.74C30.7585 101.625 30.9021 101.517 31.0534 101.418C31.2286 101.298 31.389 101.145 31.5489 101.007C31.8609 100.739 32.2034 100.506 32.5001 100.221C32.54 100.186 32.5801 100.152 32.6201 100.117C32.8117 99.9681 33.0112 99.812 33.157 99.6094C33.2381 99.4934 33.3577 99.406 33.4621 99.3008C33.5901 99.1908 33.7489 99.1006 33.8387 98.9461C33.8471 98.9235 33.8707 98.9186 33.8867 98.9049C34.2845 98.6556 34.5677 98.2731 34.9273 97.9795C34.9913 97.9244 35.0476 97.8605 35.0883 97.7947C35.1611 97.7012 35.2258 97.6147 35.3291 97.5568C35.3767 97.5314 35.409 97.4881 35.449 97.4537C35.6824 97.1913 35.9082 96.9199 36.1569 96.6753C36.2852 96.5495 36.4521 96.4523 36.6274 96.3326C36.7815 96.1074 36.9676 95.8547 37.2072 95.6642C37.3272 95.561 37.4247 95.4155 37.5141 95.2768C37.5872 95.1676 37.6675 95.0831 37.7788 95.0184C37.8424 94.9791 37.8984 94.931 37.9388 94.8808C38.238 94.4846 38.5372 94.0883 38.8669 93.7276C38.9073 93.6775 38.932 93.6253 38.9647 93.5663C39.1112 93.3322 39.2501 93.0892 39.4508 92.8858C39.5391 92.7944 39.6042 92.6921 39.6693 92.5898C39.7998 92.3695 39.9383 92.1423 40.1074 91.9506C40.1801 91.8572 40.2455 91.7392 40.3106 91.6369C40.4735 91.3733 40.6364 91.1097 40.7916 90.8372C40.8897 90.6601 40.9566 90.479 41.0471 90.2931C41.1046 90.1819 41.1464 90.0687 41.2038 89.9576C41.4576 89.4922 41.6728 88.9983 41.8491 88.4914C42.017 88.0072 42.1929 87.5161 42.3689 87.0249C42.5706 86.4344 42.7411 85.8399 42.8887 85.2186C42.9832 84.8593 43.0544 84.4891 43.1409 84.1367C43.2452 83.6917 43.3263 83.2358 43.4073 82.78C43.4349 82.6017 43.4625 82.4235 43.4825 82.2364C43.5791 81.4427 43.6834 80.6579 43.78 79.8642C43.8571 79.2418 43.9185 78.6175 43.9718 78C43.9925 77.7813 43.982 77.5587 43.9947 77.3469C44.0724 76.3532 44.0799 75.3426 44.0166 74.3466C43.9656 73.4944 43.9069 72.6334 43.7774 71.7869C43.7159 71.3918 43.6544 70.9966 43.5849 70.6084C43.5227 70.2447 43.4681 69.89 43.3903 69.5244C43.2979 69.1095 43.2055 68.6945 43.1051 68.2865C42.9625 67.6676 42.7726 67.0584 42.5671 66.4472C42.3027 65.6703 42.0462 64.8866 41.6949 64.1381C41.4556 63.6332 41.248 63.1166 41.0243 62.6137C40.6813 61.8426 40.3227 61.0695 39.8849 60.3336C39.8321 60.2399 39.795 60.1482 39.7499 60.0634C39.7197 60.0121 39.7132 59.9559 39.675 59.9115C39.3564 59.4438 39.1248 58.9478 38.8378 58.4684C38.468 57.844 38.0825 57.2176 37.681 56.6049C37.5221 56.3553 37.3471 56.1195 37.1802 55.8768C37.0966 55.7633 37.0366 55.6449 36.9529 55.5315C36.8773 55.4111 36.8013 55.3065 36.7176 55.193C36.6795 55.1486 36.6413 55.1042 36.6111 55.0529C36.4605 54.7807 36.278 54.536 36.0794 54.305C35.9572 54.1629 35.8507 54.0227 35.7285 53.8806C35.6445 53.7829 35.5761 53.6872 35.4921 53.5894C35.4157 53.5006 35.3554 53.398 35.2786 53.325C35.0179 53.0702 34.8051 52.7742 34.6084 52.4644C34.5477 52.3776 34.4946 52.2996 34.4259 52.2197C34.1888 51.96 33.9676 51.6867 33.7785 51.3858C33.7258 51.2921 33.6338 51.2012 33.5411 51.1419C33.4331 51.0648 33.3254 50.972 33.2338 50.8654C32.9738 50.5791 32.7218 50.286 32.4538 50.0066C32.2163 49.7627 31.9629 49.5326 31.6854 49.3231C31.5389 49.2173 31.4086 49.0821 31.2861 48.9557C31.0257 48.6852 30.7734 48.4078 30.5053 48.1284C30.4057 48.0287 30.3137 47.9378 30.1657 47.8951C30.0083 47.9223 29.9036 48.0432 29.8221 48.175C29.7323 48.3295 29.5658 48.4108 29.4684 48.5564C29.428 48.6065 29.3491 48.628 29.2855 48.6672C29.135 48.7348 28.9921 48.8113 28.8946 48.9569C28.8136 49.0729 28.687 49.1199 28.5605 49.1669C28.3547 49.2511 28.1871 49.3798 28.0417 49.5666C27.7973 49.6221 27.5908 49.7379 27.4065 49.9118C27.2705 50.0287 27.1112 50.1347 26.9295 50.1983C26.8189 50.2315 26.7233 50.2982 26.643 50.3828C26.5466 50.481 26.443 50.5547 26.3088 50.5928C26.143 50.6426 26.0078 50.728 25.8721 50.8291C25.8081 50.8841 25.7365 50.9303 25.6652 50.9606C25.5623 51.0027 25.4293 50.9936 25.3337 51.0603C25.2304 51.1182 25.1428 51.1781 25.0322 51.2113C24.8897 51.272 24.7621 51.3663 24.6196 51.427C24.4454 51.4995 24.2789 51.5809 24.1425 51.7135C24.0327 51.7152 23.9305 51.7258 23.8051 51.7255C23.5746 51.8619 23.3365 51.9894 23.0903 52.1237C23.0347 52.1561 22.9794 52.1727 22.9165 52.1804C22.6805 52.2134 22.4747 52.2976 22.2987 52.4489C22.1708 52.5589 22.0053 52.593 21.8395 52.6428C21.721 52.6829 21.6025 52.723 21.4763 52.7542C21.3974 52.7757 21.3105 52.8041 21.2323 52.794C21.0992 52.7849 20.9807 52.825 20.8625 52.8493C20.752 52.8825 20.6338 52.9069 20.5233 52.9401C20.3731 52.9919 20.231 53.0369 20.0175 53.1123C19.9783 53.1151 19.8684 53.1168 19.7979 53.1157C19.663 53.1853 19.5521 53.2343 19.4332 53.2902C19.1434 53.2767 18.9053 53.4041 18.6293 53.4715C18.5511 53.4614 18.4653 53.4425 18.3951 53.4256C18.2057 53.4803 18.0163 53.535 17.8112 53.5877C17.7625 53.6605 17.6676 53.6957 17.5574 53.7132C17.337 53.7481 17.1167 53.7831 16.904 53.8269C16.7229 53.859 16.5429 53.8438 16.364 53.7813C16.1735 53.8833 15.9765 53.9291 15.7637 53.9729C15.4881 54.0244 15.2049 54.0671 14.9216 54.1098C14.7013 54.1447 14.4748 54.1077 14.2337 54.0215C14.1624 54.0518 14.0835 54.0733 14.0199 54.1125C13.9006 54.1842 13.7745 54.2154 13.6258 54.2042C13.5083 54.197 13.3832 54.181 13.2658 54.1738C12.984 54.1534 12.7021 54.1331 12.4487 54.2428C12.3855 54.2663 12.2993 54.2631 12.2288 54.262C12.0091 54.2654 11.7975 54.2619 11.5855 54.2742C11.2008 54.2959 10.8089 54.293 10.4271 54.1887C10.3958 54.1847 10.3569 54.1718 10.3332 54.1767C10.0896 54.2007 9.84055 54.1213 9.58966 54.1207C9.50348 54.1176 9.41731 54.1144 9.33185 54.0797C9.17622 54.0281 9.03514 54.0258 8.87879 54.0057C8.73807 53.9877 8.59735 53.9696 8.46536 53.9131C8.30972 53.8615 8.14607 53.8169 7.98172 53.8037C7.62938 53.7821 7.29522 53.6523 6.96869 53.5314C6.91414 53.5164 6.86796 53.4789 6.81306 53.4797C6.58652 53.4428 6.38471 53.3536 6.21561 53.2055C6.16943 53.1679 6.11489 53.153 6.06834 53.1312C5.74181 53.0103 5.42292 52.8982 5.08767 52.8157C4.76005 52.742 4.47459 52.5394 4.21313 52.3161C4.09785 52.2144 3.98294 52.0969 3.87602 51.9725C3.77675 51.8571 3.6691 51.7642 3.52947 51.6989C3.31202 51.6077 3.13529 51.4507 2.95892 51.2779C2.71383 51.0251 2.47709 50.7497 2.30361 50.4509C2.12978 50.1677 1.98759 49.8729 1.85338 49.5711C1.66789 49.1127 1.4904 48.6473 1.28128 48.1937C1.20672 48.0261 1.17142 47.8556 1.15977 47.6802C1.11608 47.1925 1.20513 46.7298 1.2858 46.2896C1.38396 46.1126 1.54976 46.0627 1.70756 46.0198C1.89443 45.7355 1.97077 45.4845 1.97945 45.1063C2.09578 44.8209 2.25829 44.5731 2.44407 44.3361C2.52478 44.2359 2.61347 44.1287 2.71745 44.0393C2.80543 43.9637 2.87781 43.886 2.91198 43.764C2.95451 43.6193 3.05085 43.521 3.1781 43.4425C3.44025 43.2944 3.66422 43.1018 3.78854 42.8096C3.87143 42.6147 3.96958 42.4377 4.12264 42.2598C4.2099 42.2156 4.30516 42.1646 4.40042 42.1136C4.5055 41.977 4.60255 41.8472 4.65344 41.6799C4.67924 41.5804 4.7356 41.5165 4.80759 41.4547C4.94356 41.3378 5.05628 41.21 5.2228 41.1286C5.25443 41.1169 5.28606 41.1051 5.30242 41.0756C5.47256 40.8367 5.76416 40.7714 5.99504 40.6192C6.00304 40.6123 6.01104 40.6055 6.01904 40.5986C6.23974 40.5479 6.40009 40.3946 6.55243 40.2482C6.56842 40.2345 6.59206 40.2296 6.67132 40.1924C6.68695 40.1944 6.78078 40.2064 6.89022 40.2204C6.88223 40.2273 6.89821 40.2136 6.90621 40.2067C6.9782 40.1448 7.0422 40.0898 7.12182 40.0368C7.20944 39.9769 7.31199 39.9506 7.39198 39.8818C7.52796 39.7649 7.68575 39.7219 7.85702 39.7755C7.95192 39.7403 8.03118 39.703 8.11845 39.6589C8.17516 39.5793 8.22387 39.5065 8.28858 39.42C8.35949 39.4054 8.4384 39.3839 8.52494 39.3713C8.61911 39.3676 8.72128 39.357 8.80745 39.3601C8.99544 39.3685 9.16851 39.3433 9.30521 39.1949C9.85318 39.2336 10.3211 39.0013 10.748 38.8506C11.1163 38.8584 11.4218 38.8739 11.7356 38.8667C11.8217 38.8699 11.9086 38.8415 11.9799 38.8112C12.1384 38.7367 12.3035 38.7184 12.4751 38.7562C12.6624 38.796 12.8431 38.7797 13.0096 38.6984C13.1841 38.6101 13.3721 38.6185 13.566 38.7145C13.7365 38.7996 13.9241 38.8237 14.1041 38.8389C14.2059 38.844 14.3001 38.8403 14.3873 38.7962C14.5855 38.7031 14.7891 38.7134 15.0157 38.7504C15.2967 38.8023 15.5698 38.8611 15.8523 38.8499C15.9858 38.8434 16.1105 38.8752 16.2265 38.9454C16.412 39.064 16.5989 39.1197 16.8188 39.1005C17.0625 39.0764 17.3192 39.1647 17.5526 39.2421C17.8486 39.3275 18.1442 39.4287 18.4489 39.4757C18.6991 39.5078 18.9493 39.5399 19.1733 39.6872C19.2584 39.7377 19.3598 39.7586 19.4533 39.7864C19.6867 39.8638 19.9122 39.9481 20.1543 39.9871C20.3809 40.0241 20.5827 40.1132 20.7605 40.223C21.0892 40.2493 21.3837 40.3978 21.6706 40.5374C21.911 40.6552 22.1597 40.7503 22.3834 40.9134C22.4295 40.9509 22.5074 40.9767 22.5619 40.9916C22.8197 41.0326 23.0357 41.1868 23.2601 41.3183C23.3142 41.349 23.3528 41.3777 23.399 41.4152C23.7761 41.7244 24.2019 41.9609 24.6361 42.1747C24.6826 42.1965 24.7368 42.2271 24.7913 42.242C24.9942 42.2839 25.1564 42.3916 25.3426 42.4788C25.7302 42.6708 26.0448 42.972 26.3837 43.2368C26.5299 43.3583 26.692 43.466 26.8462 43.5807C26.9771 43.6844 27.1157 43.797 27.2546 43.8939C27.3317 43.9512 27.4164 44.0174 27.5015 44.0678C27.8655 44.2647 28.1648 44.5481 28.4964 44.7883C28.6891 44.9316 28.8499 45.1024 29.0342 45.2683C29.1371 45.2262 29.1833 45.2637 29.2375 45.2944ZM28.2519 46.219C28.2391 46.0909 28.1936 46.0218 28.1242 45.9734C27.9773 45.8834 27.83 45.8092 27.6831 45.7192C27.5438 45.6381 27.3966 45.5638 27.2893 45.4552C27.0366 45.1936 26.7591 44.9841 26.4816 44.7746C26.3042 44.6491 26.1427 44.5098 25.9653 44.3843C25.7802 44.2499 25.5947 44.1313 25.3936 44.0106C25.1227 43.8573 24.8606 43.6656 24.5729 43.5575C24.4329 43.5079 24.302 43.4042 24.1628 43.3231C24.0853 43.2815 24.0166 43.2016 23.9388 43.1758C23.7289 43.0935 23.5435 42.9749 23.342 42.87C23.133 42.7562 22.9235 42.6582 22.7064 42.5513C22.6602 42.5137 22.662 42.4349 22.5911 42.4495C22.5362 42.4504 22.4813 42.4513 22.4348 42.4295C22.1788 42.3097 21.9224 42.2056 21.6745 42.0789C21.3723 41.9216 21.0694 41.7958 20.7421 41.7064C20.6487 41.6786 20.5552 41.6508 20.4541 41.6141C20.2054 41.5189 19.9567 41.4238 19.7 41.3355C19.1007 41.14 18.484 41.0213 17.876 40.8642C17.6499 40.8115 17.423 40.7903 17.1964 40.7533C16.9466 40.7054 16.7052 40.6349 16.4765 40.6925C16.2743 40.6191 16.0954 40.5566 15.9242 40.503C15.6907 40.4256 15.4558 40.4113 15.2275 40.4531C15.1409 40.4657 15.0628 40.4556 14.9766 40.4525C14.8042 40.4461 14.6319 40.4398 14.4595 40.4335C14.3421 40.4263 14.2243 40.4349 14.1068 40.4277C13.8639 40.4203 13.6134 40.4039 13.3625 40.4033C13.0095 40.4133 12.656 40.4391 12.3106 40.4579C12.232 40.4637 12.1535 40.4694 12.0902 40.4929C11.8764 40.584 11.6412 40.5854 11.4056 40.6025C11.3114 40.6063 11.2092 40.6169 11.1223 40.6452C10.6569 40.7672 10.177 40.84 9.71846 41.0024C9.15743 41.1912 8.57387 41.3375 8.04266 41.5934C7.75724 41.7306 7.4489 41.8412 7.20094 42.0543C7.06496 42.1712 6.88315 42.2348 6.70899 42.3073C6.66936 42.3259 6.5992 42.309 6.57556 42.3139C6.53484 42.3798 6.51739 42.4566 6.46139 42.5047C6.36505 42.603 6.25379 42.6677 6.14981 42.7571C6.09382 42.8052 6.02257 42.8356 5.98985 42.8946C5.8357 43.1198 5.63573 43.2917 5.4354 43.4794C5.28306 43.6258 5.14634 43.7742 5.02491 43.9404C4.90312 44.1223 4.75844 44.2776 4.62901 44.4507C4.43523 44.6945 4.24145 44.9383 4.0633 45.1842C3.94187 45.3504 3.83571 45.5343 3.72191 45.7094C3.33219 46.2916 3.30747 46.3437 3.0003 47.0867C2.9505 47.2067 2.87707 47.3317 2.79636 47.4319C2.72365 47.5253 2.66656 47.6208 2.64039 47.736C2.6135 47.8827 2.55536 48.0253 2.52847 48.172C2.42234 48.6958 2.42233 48.6958 2.58346 49.1907C2.59073 49.2154 2.60602 49.2331 2.62892 49.2598C2.82383 49.3085 3.0009 49.4498 3.13036 49.6165C3.19146 49.6876 3.26093 49.7361 3.33802 49.7934C3.58493 49.9673 3.8642 50.098 4.11074 50.2877C4.2802 50.4201 4.44965 50.5525 4.67727 50.5422C4.6929 50.5442 4.71618 50.5551 4.73945 50.566C4.9649 50.6503 5.18998 50.7503 5.42342 50.8277C5.54778 50.8753 5.68016 50.916 5.80524 50.932C6.05541 50.9641 6.28884 51.0415 6.52084 51.182C6.66774 51.272 6.82339 51.3235 6.97102 51.382C7.08119 51.3645 7.17571 51.3451 7.26225 51.3325C7.41788 51.3841 7.55789 51.4336 7.71497 51.4222C7.75424 51.4193 7.80114 51.4254 7.84769 51.4471C7.98732 51.5125 8.1284 51.5148 8.26148 51.524C8.50401 51.5472 8.73127 51.5527 8.97344 51.5917C9.18434 51.6266 9.4036 51.639 9.61595 51.6109C9.70249 51.5983 9.78829 51.6172 9.87447 51.6204C10.1486 51.6319 10.4377 51.6769 10.713 51.6411C10.8624 51.6208 11.0271 51.6182 11.1907 51.663C11.2685 51.6888 11.3627 51.685 11.4493 51.6724C11.9125 51.645 12.3834 51.6264 12.8604 51.6797C12.8761 51.6817 12.9074 51.6857 12.931 51.6809C13.0499 51.625 13.1826 51.65 13.3084 51.6345C13.4498 51.621 13.5833 51.6145 13.7174 51.5764C13.8596 51.5314 14.0014 51.5022 14.1581 51.5065C14.401 51.514 14.6217 51.4633 14.8424 51.4126C15.1577 51.3424 15.4951 51.3304 15.7958 51.211C15.8511 51.1943 15.9216 51.1955 15.9845 51.1878C16.4085 51.1632 16.8335 51.0913 17.2284 50.9681C17.3862 50.9251 17.5357 50.9048 17.6927 50.8934C17.9047 50.8811 18.1094 50.8441 18.2996 50.7579C18.4105 50.7089 18.5367 50.6777 18.6625 50.6622C18.8119 50.6419 18.9461 50.6038 19.0809 50.5342C19.1998 50.4783 19.334 50.4402 19.4682 50.4021C19.6336 50.368 19.7987 50.3497 19.9718 50.3245C20.1372 50.2904 20.3027 50.2564 20.4459 50.1641C20.5015 50.1317 20.5263 50.0796 20.5743 50.0383C20.6528 50.0326 20.7233 50.0338 20.8019 50.028C20.8815 49.975 20.9611 49.922 20.9851 49.9014C21.4734 49.806 21.9065 49.7273 22.2424 49.4385C22.345 49.4121 22.4391 49.4084 22.526 49.3801C22.6526 49.3331 22.7718 49.2614 22.8984 49.2145C23.0329 49.1606 23.1823 49.1403 23.3092 49.0776C23.4757 48.9962 23.6274 48.8813 23.7863 48.791C23.8975 48.7263 24.0168 48.6547 24.1509 48.6166C24.5611 48.5112 24.8963 48.2539 25.2763 48.0972C25.6828 47.8096 26.1271 47.5821 26.4877 47.2411C26.5277 47.2068 26.5753 47.1813 26.623 47.1558C26.8728 47.2037 27.0553 47.1085 27.2007 46.9217C27.2251 46.8853 27.2647 46.8667 27.2891 46.8303C27.3931 46.741 27.4967 46.6673 27.6309 46.6292C27.8283 46.5676 27.9806 46.4212 28.1482 46.2926C28.1861 46.3528 28.2115 46.2691 28.2519 46.219ZM11.583 110.71C11.5048 110.699 11.411 110.687 11.3328 110.677C11.0747 110.652 10.8169 110.611 10.5583 110.602C10.3703 110.593 10.1747 110.576 9.9853 110.631C9.83514 110.683 9.67841 110.678 9.50678 110.641C9.39769 110.611 9.27227 110.61 9.14718 110.594C8.66248 110.532 8.18325 110.573 7.69891 110.495C7.652 110.489 7.61273 110.492 7.57346 110.495C7.43238 110.493 7.29095 110.506 7.15023 110.488C6.8608 110.459 6.57136 110.43 6.28847 110.457C6.1863 110.467 6.07684 110.453 5.98266 110.457C5.91722 110.575 5.98558 110.671 6.03868 110.749C6.16814 110.915 6.31324 111.084 6.4587 111.237C6.69616 111.481 6.99 111.661 7.2191 111.927C7.24201 111.954 7.27291 111.974 7.29618 111.985C7.51182 112.155 7.73582 112.302 7.93546 112.486C8.12747 112.661 8.35948 112.801 8.48822 112.999C8.62749 113.08 8.74382 113.135 8.85182 113.212C9.16055 113.425 9.494 113.587 9.77837 113.837C9.786 113.846 9.80165 113.848 9.80928 113.856C10.0726 114.001 10.3038 114.173 10.5268 114.367C10.834 114.644 11.1657 114.884 11.4329 115.195C11.5169 115.293 11.6093 115.368 11.7093 115.452C11.7631 115.498 11.8333 115.515 11.8893 115.467C11.9613 115.405 11.9478 115.309 11.942 115.221C11.9318 114.643 11.9215 114.064 11.8956 113.484C11.892 113.302 11.8414 113.114 11.869 112.935C11.8698 112.904 11.8549 112.87 11.8556 112.839C11.8254 112.448 11.7795 112.055 11.7573 111.657C11.7405 111.362 11.6532 111.066 11.5972 110.775C11.6288 110.763 11.6136 110.745 11.583 110.71ZM11.3526 108.111C11.3555 107.985 11.3653 107.9 11.3671 107.821C11.3423 107.533 11.3176 107.246 11.2925 106.974C11.2739 106.758 11.2553 106.542 11.2291 106.317C11.2167 106.174 11.1888 106.028 11.1287 105.909C10.9757 105.747 10.8106 105.766 10.6677 105.842C10.3503 106.007 10.0037 106.073 9.67141 106.204C9.36272 106.331 9.02456 106.374 8.73806 106.559C8.24029 106.724 7.78036 106.949 7.32006 107.191C7.1059 107.298 6.90702 107.422 6.7005 107.538C6.62888 107.584 6.53361 107.635 6.53835 107.77C6.63035 107.861 6.73836 107.938 6.87144 107.947C7.07506 107.957 7.2863 107.977 7.48993 107.987C7.5761 107.99 7.65465 107.984 7.74046 108.003C7.94336 108.045 8.14661 108.071 8.34368 108.025C8.39095 108.016 8.45351 108.024 8.50842 108.023C8.84512 108.042 9.17382 108.069 9.50253 108.095C9.55743 108.094 9.61233 108.094 9.66724 108.093C9.90213 108.107 10.145 108.114 10.3799 108.129C10.521 108.131 10.6617 108.149 10.8028 108.152C10.9835 108.135 11.1486 108.117 11.3526 108.111Z" fill="#6D319B"/>
</svg>
