<svg width="19" height="19" viewBox="0 0 19 19" fill="none" xmlns="http://www.w3.org/2000/svg">
<path d="M9.69507 1.21265C11.7567 1.21375 13.6972 1.96501 15.2107 3.33862L15.5076 3.62183C17.0595 5.17533 17.9136 7.23816 17.9128 9.43433L17.9021 9.8562C17.6796 14.1896 14.0818 17.6491 9.69507 17.6492H9.69116L9.43335 17.6453C8.14727 17.6044 6.88912 17.2625 5.7644 16.6492L5.59058 16.5544L5.39819 16.6042L1.61499 17.5955L2.6228 13.9158L2.67847 13.7146L2.57397 13.5339C1.85525 12.2888 1.47687 10.8758 1.47729 9.42749L1.48804 9.00562C1.7029 4.81131 5.07873 1.43658 9.27319 1.22339L9.69507 1.21265Z" stroke="#6D319B"/>
<path fill-rule="evenodd" clip-rule="evenodd" d="M7.51628 5.78351C7.35301 5.42088 7.18124 5.41353 7.02613 5.40717C6.89911 5.40178 6.75379 5.4021 6.60864 5.4021C6.46333 5.4021 6.22739 5.45664 6.02787 5.67461C5.82819 5.89258 5.26538 6.41947 5.26538 7.4912C5.26538 8.56294 6.046 9.59842 6.15474 9.7439C6.26364 9.88922 7.6616 12.1587 9.87576 13.0318C11.7157 13.7574 12.0901 13.613 12.4896 13.5768C12.889 13.5405 13.7783 13.0499 13.9597 12.5413C14.1413 12.0327 14.1413 11.5969 14.0869 11.5058C14.0324 11.4149 13.8873 11.3605 13.6693 11.2516C13.4515 11.1427 12.3806 10.6156 12.1809 10.543C11.9812 10.4703 11.836 10.4341 11.6907 10.652C11.5456 10.87 11.1284 11.3605 11.0012 11.5058C10.8742 11.6513 10.7472 11.6694 10.5292 11.5605C10.3114 11.4513 9.60979 11.2215 8.77758 10.4795C8.13003 9.90212 7.69295 9.1891 7.56576 8.97112C7.43873 8.75315 7.5522 8.63527 7.66143 8.52669C7.75923 8.42905 7.87924 8.27231 7.98831 8.14512C8.09689 8.01793 8.1333 7.92715 8.20579 7.782C8.27845 7.63652 8.2422 7.50933 8.18767 7.40042C8.1333 7.29152 7.70993 6.21423 7.51628 5.78351Z" fill="#6D319B"/>
</svg>
