<svg width="83" height="82" viewBox="0 0 83 82" fill="none" xmlns="http://www.w3.org/2000/svg">
<path d="M41.8379 1.89697C51.8791 1.90187 61.3155 5.68424 68.5469 12.5767L69.2393 13.2534C76.325 20.3462 80.3238 29.6938 80.5635 39.6812L80.5742 40.6499C80.5645 61.9978 63.185 79.3716 41.8389 79.3716H41.8223C35.3392 79.3689 28.969 77.7433 23.3125 74.6587L22.79 74.3735L22.2139 74.5239L3.39746 79.4575L8.4209 61.1226L8.58594 60.5181L8.27344 59.9761C4.885 54.1058 3.10145 47.4449 3.10352 40.6187C3.1122 19.2694 20.4881 1.8975 41.8379 1.89697Z" stroke="#6D319B" stroke-width="3"/>
<path fill-rule="evenodd" clip-rule="evenodd" d="M31.7833 23.801C31.0297 22.1273 30.237 22.0934 29.5211 22.064C28.9348 22.0391 28.2641 22.0406 27.5942 22.0406C26.9235 22.0406 25.8346 22.2923 24.9137 23.2983C23.9921 24.3043 21.3945 26.7361 21.3945 31.6826C21.3945 36.6291 24.9974 41.4082 25.4992 42.0797C26.0019 42.7504 32.454 53.2251 42.6732 57.2544C51.1652 60.6033 52.8932 59.9372 54.7372 59.7699C56.5804 59.6026 60.6852 57.3381 61.5224 54.9907C62.3603 52.6433 62.3603 50.632 62.1094 50.2115C61.8577 49.7918 61.1878 49.5408 60.1818 49.0382C59.1765 48.5356 54.2338 46.103 53.3122 45.7677C52.3906 45.4323 51.7206 45.265 51.05 46.2711C50.38 47.2771 48.4546 49.5408 47.8676 50.2115C47.2813 50.8829 46.695 50.9666 45.689 50.464C44.6838 49.9598 41.4456 48.8995 37.6047 45.4745C34.616 42.8099 32.5987 39.519 32.0116 38.513C31.4254 37.507 31.9491 36.9629 32.4532 36.4618C32.9046 36.0111 33.4585 35.2877 33.9619 34.7007C34.463 34.1136 34.6311 33.6946 34.9657 33.0247C35.301 32.3533 35.1337 31.7662 34.882 31.2636C34.6311 30.761 32.6771 25.7889 31.7833 23.801Z" fill="#6D319B"/>
</svg>
